<svg width="48" height="25" viewBox="0 0 48 25" fill="none" xmlns="http://www.w3.org/2000/svg">
<path d="M1.87 25C1.61333 25 1.39167 24.9067 1.205 24.72C1.01833 24.5333 0.925 24.3117 0.925 24.055V1.445C0.925 1.18833 1.01833 0.966666 1.205 0.779999C1.39167 0.593332 1.61333 0.499998 1.87 0.499998H9.01C9.26667 0.499998 9.48833 0.593332 9.675 0.779999C9.86167 0.966666 9.955 1.18833 9.955 1.445V24.055C9.955 24.3117 9.86167 24.5333 9.675 24.72C9.48833 24.9067 9.26667 25 9.01 25H1.87ZM14.7557 25C14.4991 25 14.2774 24.9067 14.0907 24.72C13.9041 24.5333 13.8107 24.3117 13.8107 24.055V1.445C13.8107 1.18833 13.9041 0.966666 14.0907 0.779999C14.2774 0.593332 14.4991 0.499998 14.7557 0.499998H20.2857C20.7524 0.499998 21.0907 0.604998 21.3007 0.814998C21.5107 1.025 21.6507 1.18833 21.7207 1.305L27.6357 11V1.445C27.6357 1.18833 27.7291 0.966666 27.9157 0.779999C28.1024 0.593332 28.3241 0.499998 28.5807 0.499998H34.9157C35.1724 0.499998 35.3941 0.593332 35.5807 0.779999C35.7674 0.966666 35.8607 1.18833 35.8607 1.445V24.055C35.8607 24.3117 35.7674 24.5333 35.5807 24.72C35.3941 24.9067 35.1724 25 34.9157 25H29.3857C28.9191 25 28.5807 24.895 28.3707 24.685C28.1607 24.4517 28.0207 24.2883 27.9507 24.195L22.0357 15.27V24.055C22.0357 24.3117 21.9424 24.5333 21.7557 24.72C21.5691 24.9067 21.3474 25 21.0907 25H14.7557Z" fill="#353252"/>
<path d="M40.2089 25C39.9523 25 39.7306 24.9067 39.5439 24.72C39.3573 24.5333 39.2639 24.3117 39.2639 24.055V17.965C39.2639 17.7083 39.3573 17.4867 39.5439 17.3C39.7306 17.1133 39.9523 17.02 40.2089 17.02H46.2989C46.5556 17.02 46.7773 17.1133 46.9639 17.3C47.1506 17.4867 47.2439 17.7083 47.2439 17.965V24.055C47.2439 24.3117 47.1506 24.5333 46.9639 24.72C46.7773 24.9067 46.5556 25 46.2989 25H40.2089Z" fill="#FF5757"/>
</svg>
